HIERARCHY
ROOT Hips
{
	OFFSET 0.000000 0.000000 0.000000 
	CHANNELS 6 Xposition Yposition Zposition Zrotation Yrotation Xrotation
	JOINT LHipJoint
	{
		OFFSET 0.000000 0.000000 0.000000 
		CHANNELS 3 Zrotation Yrotation Xrotation
		JOINT LeftUpLeg
		{
			OFFSET 0.049174 -0.055197 0.022926 
			CHANNELS 3 Zrotation Yrotation Xrotation
			JOINT LeftLeg
			{
				OFFSET 0.075187 -0.206577 0.000000 
				CHANNELS 3 Zrotation Yrotation Xrotation
				JOINT LeftFoot
				{
					OFFSET 0.083177 -0.228528 0.000000 
					CHANNELS 3 Zrotation Yrotation Xrotation
					JOINT LeftToeBase
					{
						OFFSET 0.006522 -0.017919 0.066408 
						CHANNELS 3 Zrotation Yrotation Xrotation
						End Site
						{
							OFFSET 0.000000 -0.000000 0.034549 
						}
					}
				}
			}
		}
	}
	JOINT RHipJoint
	{
		OFFSET 0.000000 0.000000 0.000000 
		CHANNELS 3 Zrotation Yrotation Xrotation
		JOINT RightUpLeg
		{
			OFFSET -0.046656 -0.055197 0.022926 
			CHANNELS 3 Zrotation Yrotation Xrotation
			JOINT RightLeg
			{
				OFFSET -0.076145 -0.209206 0.000000 
				CHANNELS 3 Zrotation Yrotation Xrotation
				JOINT RightFoot
				{
					OFFSET -0.082175 -0.225773 0.000000 
					CHANNELS 3 Zrotation Yrotation Xrotation
					JOINT RightToeBase
					{
						OFFSET -0.008058 -0.022138 0.069332 
						CHANNELS 3 Zrotation Yrotation Xrotation
						End Site
						{
							OFFSET -0.000000 -0.000000 0.036391 
						}
					}
				}
			}
		}
	}
	JOINT LowerBack
	{
		OFFSET 0.000000 0.000000 0.000000 
		CHANNELS 3 Zrotation Yrotation Xrotation
		JOINT Spine
		{
			OFFSET -0.000011 0.066375 -0.007953 
			CHANNELS 3 Zrotation Yrotation Xrotation
			JOINT Spine1
			{
				OFFSET 0.001748 0.066993 -0.001037 
				CHANNELS 3 Zrotation Yrotation Xrotation
				JOINT Neck
				{
					OFFSET 0.000000 0.000000 0.000000 
					CHANNELS 3 Zrotation Yrotation Xrotation
					JOINT Neck1
					{
						OFFSET -0.003073 0.050852 0.007566 
						CHANNELS 3 Zrotation Yrotation Xrotation
						JOINT Head
						{
							OFFSET 0.003390 0.051888 -0.007078 
							CHANNELS 3 Zrotation Yrotation Xrotation
							End Site
							{
								OFFSET 0.001370 0.052583 -0.003294 
							}
						}
					}
				}
				JOINT LeftShoulder
				{
					OFFSET 0.000000 0.000000 0.000000 
					CHANNELS 3 Zrotation Yrotation Xrotation
					JOINT LeftArm
					{
						OFFSET 0.102846 0.024812 -0.021306 
						CHANNELS 3 Zrotation Yrotation Xrotation
						JOINT LeftForeArm
						{
							OFFSET 0.161034 -0.000000 -0.000000 
							CHANNELS 3 Zrotation Yrotation Xrotation
							JOINT LeftHand
							{
								OFFSET 0.117231 -0.000000 -0.000000 
								CHANNELS 3 Zrotation Yrotation Xrotation
								JOINT LeftFingerBase
								{
									OFFSET 0.000000 0.000000 0.000000 
									CHANNELS 3 Zrotation Yrotation Xrotation
									JOINT LeftHandIndex1
									{
										OFFSET 0.016537 -0.000000 0.000000 
										CHANNELS 3 Zrotation Yrotation Xrotation
										End Site
										{
											OFFSET 0.013332 -0.000000 0.000000 
										}
									}
								}
								JOINT LThumb
								{
									OFFSET 0.000000 0.000000 0.000000 
									CHANNELS 3 Zrotation Yrotation Xrotation
									End Site
									{
										OFFSET 0.013536 -0.000000 0.013536 
									}
								}
							}
						}
					}
				}
				JOINT RightShoulder
				{
					OFFSET 0.000000 0.000000 0.000000 
					CHANNELS 3 Zrotation Yrotation Xrotation
					JOINT RightArm
					{
						OFFSET -0.096067 0.033214 -0.013856 
						CHANNELS 3 Zrotation Yrotation Xrotation
						JOINT RightForeArm
						{
							OFFSET -0.165504 -0.000000 0.000000 
							CHANNELS 3 Zrotation Yrotation Xrotation
							JOINT RightHand
							{
								OFFSET -0.117545 -0.000000 -0.000000 
								CHANNELS 3 Zrotation Yrotation Xrotation
								JOINT RightFingerBase
								{
									OFFSET 0.000000 0.000000 0.000000 
									CHANNELS 3 Zrotation Yrotation Xrotation
									JOINT RightHandIndex1
									{
										OFFSET -0.023354 -0.000000 0.000000 
										CHANNELS 3 Zrotation Yrotation Xrotation
										End Site
										{
											OFFSET -0.018828 -0.000000 0.000000 
										}
									}
								}
								JOINT RThumb
								{
									OFFSET 0.000000 0.000000 0.000000 
									CHANNELS 3 Zrotation Yrotation Xrotation
									End Site
									{
										OFFSET -0.019116 -0.000000 0.019116 
									}
								}
							}
						}
					}
				}
			}
		}
	}
}
MOTION
Frames: 4
Frame Time: 0.008333
0.443256 0.530306 -0.983847 1.077700 -2.746600 -1.540500 0.000000 0.000000 0.000000 -21.363400 -1.342000 2.733100 14.329800 19.211000 73.209198 1.197400 0.936000 20.401699 0.502800 4.545600 12.617000 0.000000 0.000000 0.000000 24.134800 8.795200 -24.401699 -4.731500 -13.074900 39.649399 -0.122400 -6.890000 -12.333000 -0.003400 -0.378400 1.039600 -1.176700 -0.304700 11.693500 3.071600 -0.365400 0.251600 3.971100 -0.096800 -6.278400 -8.982600 -2.683800 -15.879800 4.302200 -2.335300 16.572500 2.637800 -1.261300 7.903000 -0.000000 0.000000 0.000000 -90.778801 11.173900 39.149799 116.450699 -57.183899 -82.690399 -0.000000 0.000000 -15.599000 19.082701 5.629600 1.943700 -7.125000 0.000000 -0.000000 -6.381400 35.873199 1.438800 -0.000000 0.000000 0.000000 81.539902 -22.228100 40.529999 -138.304001 49.043201 -100.289299 0.000000 -0.000000 -11.582700 -5.805800 21.992001 -2.180600 7.125000 -0.000000 -0.000000 14.446900 -8.438900 12.588100 
0.443019 0.528206 -0.972081 0.147500 -2.712400 -1.701000 0.000000 0.000000 0.000000 -19.563601 -1.524900 0.348400 15.518200 19.511400 76.792702 0.932200 0.350000 18.137400 0.243300 3.174500 8.764900 0.000000 0.000000 0.000000 25.297701 8.663100 -23.758400 -5.168200 -13.570700 41.544201 -0.224600 -7.159300 -14.290000 -0.000300 0.105700 -0.290400 -0.113100 -0.226800 11.926300 3.209600 -0.117100 0.668800 3.466900 -0.011600 -5.988000 -8.817100 -2.893900 -17.312099 4.352700 -2.547800 17.150200 2.601300 -1.339500 8.362000 0.000000 0.000000 0.000000 -91.118500 10.581400 38.860298 114.249802 -57.657001 -80.835701 -0.000000 0.000000 -16.810101 19.315100 6.062800 2.120000 -7.125000 0.000000 -0.000000 -6.237200 36.340698 1.334400 0.000000 0.000000 0.000000 81.223000 -19.529499 40.660500 -136.776093 49.868099 -99.128197 0.000000 -0.000000 -12.405100 -6.073600 22.094200 -2.291800 7.125000 -0.000000 -0.000000 14.280100 -8.318300 12.468000 
0.442781 0.526122 -0.960563 -0.720200 -2.678900 -1.751700 0.000000 0.000000 0.000000 -17.814899 -1.718100 -2.257900 16.625500 19.724800 80.089996 0.472200 -1.224500 13.482400 0.161200 -2.587000 -7.131000 0.000000 0.000000 0.000000 26.377001 8.511100 -23.089800 -5.548800 -13.976400 43.143002 -0.337500 -7.294800 -16.000099 -0.008600 0.599700 -1.647900 0.605200 -0.258700 12.077400 3.542300 -0.043500 0.829500 3.399100 0.007800 -5.908100 -8.905900 -2.797400 -17.870001 4.486000 -2.372600 17.549101 2.685500 -1.248900 8.585800 -0.000000 0.000000 0.000000 -91.897400 10.445300 38.092999 111.735199 -58.137501 -78.705498 -0.000000 0.000000 -17.985300 19.727200 6.555400 2.344300 -7.125000 0.000000 -0.000000 -5.949000 36.882801 1.193100 -0.000000 0.000000 0.000000 80.305496 -17.300200 41.390099 -135.235596 50.652500 -97.943604 0.000000 -0.000000 -13.208500 -6.763100 22.273800 -2.573700 7.125000 -0.000000 -0.000000 13.852100 -8.086400 12.135500 
0.442616 0.524169 -0.949088 -1.205800 -2.358900 -1.712700 0.000000 0.000000 0.000000 -16.587099 -2.236200 -4.968700 17.638000 19.865700 83.079201 0.399200 -1.326600 12.491100 0.131200 -2.335000 -6.432500 0.000000 0.000000 0.000000 26.973000 8.074800 -22.512100 -5.904100 -14.334800 44.595699 -0.480100 -7.096600 -17.575701 -0.014100 0.765700 -2.104300 0.958300 -0.376100 11.859200 3.792800 -0.146400 0.909500 3.476500 -0.050500 -5.696700 -8.996400 -2.852600 -17.336599 4.440700 -2.455400 16.955400 2.670200 -1.295300 8.297700 -0.000000 0.000000 0.000000 -92.728104 10.150900 37.216499 108.834602 -58.616199 -76.235397 -0.000000 0.000000 -19.489201 19.850201 7.457200 2.682600 -7.125000 0.000000 -0.000000 -5.954700 37.841202 1.053900 -0.000000 0.000000 0.000000 79.288101 -15.226100 42.167301 -133.565094 51.452400 -96.644302 0.000000 -0.000000 -13.845100 -7.400900 23.287100 -2.939700 7.125000 -0.000000 -0.000000 13.459700 -7.042600 12.053900 
